<svg width="201" height="19" viewBox="0 0 201 19" fill="none" xmlns="http://www.w3.org/2000/svg">
<path d="M2.3 16.53V10.97H9.62H9.92V10.67V9.14001V8.84001H9.62H2.3V3.35001H10.4H10.7V3.05001V1.49001V1.20001H10.4H0.3H0V1.49001V18.39V18.69H0.3H10.42H10.72V18.39V16.83V16.53H10.42H2.3Z" fill="white"/>
<path d="M36.6 1.20001H36.3V1.49001V14.56L27.56 1.33001L27.47 1.20001H27.31H25.59H25.29V1.49001V18.39V18.69H25.59H27.28H27.58V18.39V5.32001L36.35 18.55L36.44 18.69H36.6H38.28H38.58V18.39V1.49001V1.20001H38.28H36.6Z" fill="white"/>
<path d="M52.36 1.20001H52.06V1.49001V3.05001V3.35001H52.36H57.25V18.39V18.69H57.55H59.25H59.55V18.39V3.35001H64.46H64.76V3.05001V1.49001V1.20001H64.46H52.36Z" fill="white"/>
<path d="M87.29 11.28C88.3104 10.9502 89.1914 10.2889 89.7929 9.40112C90.3944 8.51332 90.682 7.44997 90.61 6.38C90.61 3.18 88.39 1.19 84.82 1.19H78.22V18.69H80.52V11.69H85L88.26 18.33L88.57 18.95L88.81 18.3L89.62 16.12V15.99L89.57 15.88L87.29 11.28ZM84.86 9.55001H80.52V3.33001H84.82C87.01 3.33001 88.27 4.46 88.27 6.43C88.27 8.4 87 9.55001 84.86 9.55001Z" fill="white"/>
<path d="M118.63 18.69L118.48 18.28L112.2 1.39L112.13 1.19H109.61L109.54 1.39L103.33 18.28L103.18 18.69H105.55L105.62 18.49L107.2 14.21H114.56L116.14 18.49L116.22 18.69H118.63V18.69ZM107.94 12.12L110.86 4.12L113.8 12.12H107.94Z" fill="white"/>
<path d="M143.29 1.20001H142.99V1.49001V14.56L134.25 1.33001L134.16 1.20001H134H132.27H131.97V1.49001V18.39V18.69H132.27H133.97H134.27V18.39V5.32001L143.04 18.55L143.13 18.69H143.29H144.97H145.27V18.39V1.49001V1.20001H144.97H143.29Z" fill="white"/>
<path d="M175.07 13H173.07L173 13.2C172.629 14.2739 171.917 15.197 170.973 15.8289C170.029 16.4607 168.904 16.7666 167.77 16.7C164.25 16.7 161.89 13.98 161.89 9.92003C161.89 5.86003 164.25 3.12003 167.77 3.12003C168.917 3.07256 170.047 3.41135 170.979 4.08217C171.911 4.75298 172.591 5.71704 172.91 6.82003L172.97 7.04003H175.38L175.31 6.68003C174.948 4.98874 174 3.47991 172.633 2.42033C171.266 1.36076 169.568 0.818707 167.84 0.890028C162.94 0.890028 159.52 4.60003 159.52 9.89003C159.52 15.18 162.82 18.89 167.74 18.89C169.458 18.9699 171.152 18.463 172.544 17.4526C173.937 16.4422 174.943 14.9884 175.4 13.33L175.49 12.96L175.07 13Z" fill="white"/>
<path d="M199.86 16.53H191.73V10.97H199.05H199.35V10.67V9.14001V8.84001H199.05H191.73V3.35001H199.83H200.13V3.05001V1.49001V1.20001H199.83H189.74H189.44V1.49001V18.39V18.69H189.74H199.86H200.16V18.39V16.83V16.53H199.86Z" fill="white"/>
</svg>
